<?xml version="1.0" standalone="no"?><!DOCTYPE svg PUBLIC "-//W3C//DTD SVG 1.1//EN" "http://www.w3.org/Graphics/SVG/1.1/DTD/svg11.dtd"><svg t="1732801120525" class="icon" viewBox="0 0 1024 1024" version="1.1" xmlns="http://www.w3.org/2000/svg" p-id="1818" xmlns:xlink="http://www.w3.org/1999/xlink" width="200" height="200"><path d="M780.6976 93.7984l-116.8384-4.352a30.72 30.72 0 0 0-30.208 20.6336l-3.1744 9.2672a120.1664 120.1664 0 0 1-223.5392 0.3584l-3.1232-8.9088a30.72 30.72 0 0 0-30.3616-21.3504l-124.5184 4.4544a128 128 0 0 0-108.3392 67.584L7.168 411.136l-2.4576 5.5808A55.04 55.04 0 0 0 31.4368 485.376l131.8912 66.4064v346.624a30.72 30.72 0 0 0 30.72 30.72h633.9584l4.9664-0.4096a30.72 30.72 0 0 0 25.7536-30.3104v-346.5728l134.3488-66.9184c27.0336-13.8752 37.6832-47.0528 23.808-74.0864L889.856 163.2256a128 128 0 0 0-109.1584-69.4272zM353.8432 151.552l3.072 6.4a181.6576 181.6576 0 0 0 216.9856 90.368l10.3424-3.6864a181.6064 181.6064 0 0 0 94.8736-84.3776l4.2496-8.6528 95.0784 3.5328 7.168 0.6656a66.56 66.56 0 0 1 49.5616 35.4304l124.0576 241.8176-144.896 72.2432-4.2496 2.56a30.72 30.72 0 0 0-12.8 24.9344v334.7968H224.768v-334.7968l-0.3584-4.9152a30.72 30.72 0 0 0-16.5376-22.528L64.8704 433.408 194.7648 190.464a66.56 66.56 0 0 1 56.32-35.1744l102.7584-3.6864z" fill="#707070" p-id="1819"></path><path d="M194.2528 399.7184a30.72 30.72 0 0 1 30.3104 25.7536l0.4096 4.9664v143.5136a30.72 30.72 0 0 1-61.0304 5.0176l-0.4096-5.0176V430.4384a30.72 30.72 0 0 1 30.72-30.72zM828.1088 399.7184a30.72 30.72 0 0 1 30.3104 25.7536l0.4096 4.9664v192.1536a30.72 30.72 0 0 1-61.0304 5.0176l-0.4096-5.0176V430.4384a30.72 30.72 0 0 1 30.72-30.72zM639.0784 411.5456a30.72 30.72 0 0 1 51.2 33.6384l-2.7648 4.1472-185.2928 237.4144a30.72 30.72 0 0 1-43.4176 5.12l-3.7376-3.584-111.0016-124.4672a30.72 30.72 0 0 1 41.7792-44.6976l4.096 3.7888 86.4768 97.024 162.6624-208.384z" fill="#707070" p-id="1820"></path></svg>